<?xml version="1.0" encoding="UTF-8" standalone="no"?>
<!-- Generator: Adobe Illustrator 21.0.2, SVG Export Plug-In . SVG Version: 6.00 Build 0)  -->

<svg
   xmlns:dc="http://purl.org/dc/elements/1.1/"
   xmlns:cc="http://creativecommons.org/ns#"
   xmlns:rdf="http://www.w3.org/1999/02/22-rdf-syntax-ns#"
   xmlns:svg="http://www.w3.org/2000/svg"
   xmlns="http://www.w3.org/2000/svg"
   xmlns:sodipodi="http://sodipodi.sourceforge.net/DTD/sodipodi-0.dtd"
   xmlns:inkscape="http://www.inkscape.org/namespaces/inkscape"
   version="1.1"
   id="svg13659"
   x="0px"
   y="0px"
   viewBox="0 0 74 44"
   style="enable-background:new 0 0 74 44;"
   xml:space="preserve"
   inkscape:version="0.91 r13725"
   sodipodi:docname="analysis-factor.svg"><metadata
     id="metadata6208"><rdf:RDF><cc:Work
         rdf:about=""><dc:format>image/svg+xml</dc:format><dc:type
           rdf:resource="http://purl.org/dc/dcmitype/StillImage" /></cc:Work></rdf:RDF></metadata><defs
     id="defs6206" /><sodipodi:namedview
     pagecolor="#ffffff"
     bordercolor="#666666"
     borderopacity="1"
     objecttolerance="10"
     gridtolerance="10"
     guidetolerance="10"
     inkscape:pageopacity="0"
     inkscape:pageshadow="2"
     inkscape:window-width="939"
     inkscape:window-height="616"
     id="namedview6204"
     showgrid="false"
     inkscape:zoom="3.7027027"
     inkscape:cx="5.9416058"
     inkscape:cy="22"
     inkscape:window-x="0"
     inkscape:window-y="0"
     inkscape:window-maximized="0"
     inkscape:current-layer="svg13659" /><style
     type="text/css"
     id="style6176">
	.st0{fill:none;stroke:#9F9F9F;stroke-width:2;stroke-linecap:square;}
	.st1{fill:#FFFFFF;}
	.st2{fill:#6B9DE8;}
	.st3{fill:#E6AC40;}
</style><line
     class="st0"
     x1="37"
     y1="9.7"
     x2="37"
     y2="34.4"
     id="line6178" /><rect
     style="fill:#282c34;fill-opacity:1"
     id="rect6181"
     height="11"
     width="11"
     class="st1"
     y="28.9"
     x="31.5" /><path
     style="fill:#6b9de8"
     inkscape:connector-curvature="0"
     id="path6183"
     d="m 41,30.4 0,8 -8,0 0,-8 8,0 m 3,-3 -14,0 0,14 14,0 0,-14 0,0 z"
     class="st2" /><line
     class="st0"
     x1="37"
     y1="9.7"
     x2="54.1"
     y2="27.4"
     id="line6185" /><line
     class="st0"
     x1="37"
     y1="9.7"
     x2="19.9"
     y2="27.4"
     id="line6187" /><circle
     style="fill:#282c34;fill-opacity:1"
     id="circle6190"
     r="6.5"
     cy="9.6999998"
     cx="37"
     class="st1" /><path
     style="fill:#e6ac40"
     inkscape:connector-curvature="0"
     id="path6192"
     d="m 37,4.7 c 2.8,0 5,2.2 5,5 0,2.8 -2.2,5 -5,5 -2.8,0 -5,-2.2 -5,-5 0,-2.8 2.2,-5 5,-5 m 0,-3 c -4.4,0 -8,3.6 -8,8 0,4.4 3.6,8 8,8 4.4,0 8,-3.6 8,-8 0,-4.4 -3.6,-8 -8,-8 l 0,0 z"
     class="st3" /><rect
     style="fill:#282c34;fill-opacity:1"
     id="rect6195"
     height="11"
     width="11"
     class="st1"
     y="28.9"
     x="48.599998" /><path
     style="fill:#6b9de8"
     inkscape:connector-curvature="0"
     id="path6197"
     d="m 58.1,30.4 0,8 -8,0 0,-8 8,0 m 3,-3 -14,0 0,14 14,0 0,-14 0,0 z"
     class="st2" /><rect
     style="fill:#282c34;fill-opacity:1"
     id="rect6200"
     height="11"
     width="11"
     class="st1"
     y="28.9"
     x="14.4" /><path
     style="fill:#6b9de8"
     inkscape:connector-curvature="0"
     id="path6202"
     d="m 23.9,30.4 0,8 -8,0 0,-8 8,0 m 3,-3 -14,0 0,14 14,0 0,-14 0,0 z"
     class="st2" /></svg>